<svg xmlns="http://www.w3.org/2000/svg" viewBox="0 0 512 512">
  <defs>
    <linearGradient id="grad1" x1="0%" y1="0%" x2="100%" y2="100%">
      <stop offset="0%" style="stop-color:#6366f1;stop-opacity:1" />
      <stop offset="50%" style="stop-color:#8b5cf6;stop-opacity:1" />
      <stop offset="100%" style="stop-color:#a855f7;stop-opacity:1" />
    </linearGradient>
    <linearGradient id="grad2" x1="0%" y1="100%" x2="100%" y2="0%">
      <stop offset="0%" style="stop-color:#06b6d4;stop-opacity:1" />
      <stop offset="100%" style="stop-color:#3b82f6;stop-opacity:1" />
    </linearGradient>
  </defs>

  <!-- Background circle -->
  <circle cx="256" cy="256" r="240" fill="url(#grad1)"/>

  <!-- Abstract tech pattern - interconnected nodes -->
  <g fill="none" stroke="rgba(255,255,255,0.3)" stroke-width="2">
    <line x1="128" y1="180" x2="256" y2="120"/>
    <line x1="256" y1="120" x2="384" y2="180"/>
    <line x1="128" y1="180" x2="128" y2="332"/>
    <line x1="384" y1="180" x2="384" y2="332"/>
    <line x1="128" y1="332" x2="256" y2="392"/>
    <line x1="384" y1="332" x2="256" y2="392"/>
    <line x1="256" y1="120" x2="256" y2="256"/>
    <line x1="128" y1="180" x2="256" y2="256"/>
    <line x1="384" y1="180" x2="256" y2="256"/>
    <line x1="128" y1="332" x2="256" y2="256"/>
    <line x1="384" y1="332" x2="256" y2="256"/>
  </g>

  <!-- Main hexagonal shape -->
  <polygon
    points="256,100 380,172 380,340 256,412 132,340 132,172"
    fill="none"
    stroke="white"
    stroke-width="8"
    stroke-linejoin="round"
  />

  <!-- Center node -->
  <circle cx="256" cy="256" r="32" fill="url(#grad2)"/>
  <circle cx="256" cy="256" r="24" fill="white"/>
  <circle cx="256" cy="256" r="12" fill="url(#grad2)"/>

  <!-- Corner nodes -->
  <circle cx="256" cy="100" r="16" fill="white"/>
  <circle cx="380" cy="172" r="16" fill="white"/>
  <circle cx="380" cy="340" r="16" fill="white"/>
  <circle cx="256" cy="412" r="16" fill="white"/>
  <circle cx="132" cy="340" r="16" fill="white"/>
  <circle cx="132" cy="172" r="16" fill="white"/>
</svg>
